<?xml version="1.0" encoding="UTF-8" standalone="no"?><svg xmlns="http://www.w3.org/2000/svg" xmlns:xlink="http://www.w3.org/1999/xlink" contentStyleType="text/css" height="167.7083px" preserveAspectRatio="none" style="width:960px;height:167px;background:#FFFFFF;" version="1.1" viewBox="0 0 960 167" width="960.4167px" zoomAndPan="magnify"><defs/><g><!--MD5=[d55f951f5f8c9720a4067ed294594221]
entity input_tag--><g id="elem_input_tag"><path d="M11.4583,6.25 L151.0417,6.25 C156.25,6.25 156.25,19.9463 156.25,19.9463 C156.25,19.9463 156.25,33.6426 151.0417,33.6426 L11.4583,33.6426 C6.25,33.6426 6.25,19.9463 6.25,19.9463 C6.25,19.9463 6.25,6.25 11.4583,6.25 " fill="#FF6347" style="stroke:#454645;stroke-width:1.5625;"/><path d="M151.0417,6.25 C145.8333,6.25 145.8333,19.9463 145.8333,19.9463 C145.8333,33.6426 151.0417,33.6426 151.0417,33.6426 " fill="none" style="stroke:#454645;stroke-width:1.5625;"/><text fill="#FFFFFF" font-family="Arial" font-size="14.5833" lengthAdjust="spacing" textLength="129.1667" x="11.4583" y="24.9949">input/tag_position</text></g><!--MD5=[63a3c832285ad46973bfd6b8c75cd733]
entity tf_topic--><g id="elem_tf_topic"><path d="M63.0208,69.7917 L99.4792,69.7917 C104.6875,69.7917 104.6875,83.488 104.6875,83.488 C104.6875,83.488 104.6875,97.1842 99.4792,97.1842 L63.0208,97.1842 C57.8125,97.1842 57.8125,83.488 57.8125,83.488 C57.8125,83.488 57.8125,69.7917 63.0208,69.7917 " fill="#FF6347" style="stroke:#454645;stroke-width:1.5625;"/><path d="M99.4792,69.7917 C94.2708,69.7917 94.2708,83.488 94.2708,83.488 C94.2708,97.1842 99.4792,97.1842 99.4792,97.1842 " fill="none" style="stroke:#454645;stroke-width:1.5625;"/><text fill="#FFFFFF" font-family="Arial" font-size="14.5833" lengthAdjust="spacing" textLength="9.375" x="71.3542" y="88.5366">tf</text></g><!--MD5=[f2fdd11a011235a5fd8a5609026b19af]
entity tf_static_topic--><g id="elem_tf_static_topic"><path d="M48.4375,133.3333 L114.0625,133.3333 C119.2708,133.3333 119.2708,147.0296 119.2708,147.0296 C119.2708,147.0296 119.2708,160.7259 114.0625,160.7259 L48.4375,160.7259 C43.2292,160.7259 43.2292,147.0296 43.2292,147.0296 C43.2292,147.0296 43.2292,133.3333 48.4375,133.3333 " fill="#FF6347" style="stroke:#454645;stroke-width:1.5625;"/><path d="M114.0625,133.3333 C108.8542,133.3333 108.8542,147.0296 108.8542,147.0296 C108.8542,160.7259 114.0625,160.7259 114.0625,160.7259 " fill="none" style="stroke:#454645;stroke-width:1.5625;"/><text fill="#FFFFFF" font-family="Arial" font-size="14.5833" lengthAdjust="spacing" textLength="55.2083" x="48.4375" y="152.0782">tf_static</text></g><!--MD5=[14fcab7f8687b5297c193c6f7727a004]
entity output_odom_ips--><g id="elem_output_odom_ips"><path d="M789.5833,69.7917 L947.9167,69.7917 C953.125,69.7917 953.125,83.488 953.125,83.488 C953.125,83.488 953.125,97.1842 947.9167,97.1842 L789.5833,97.1842 C784.375,97.1842 784.375,83.488 784.375,83.488 C784.375,83.488 784.375,69.7917 789.5833,69.7917 " fill="#FF6347" style="stroke:#454645;stroke-width:1.5625;"/><path d="M947.9167,69.7917 C942.7083,69.7917 942.7083,83.488 942.7083,83.488 C942.7083,97.1842 947.9167,97.1842 947.9167,97.1842 " fill="none" style="stroke:#454645;stroke-width:1.5625;"/><text fill="#FFFFFF" font-family="Arial" font-size="14.5833" lengthAdjust="spacing" textLength="147.9167" x="789.5833" y="88.5366">output/odometry/ips</text></g><!--MD5=[096683d4cdd4e3d9b573476fbf951584]
entity TransformNode--><g id="elem_TransformNode"><polygon fill="#F1F1F1" points="428.125,69.7917,438.5417,59.375,581.25,59.375,581.25,97.1842,570.8333,107.6009,428.125,107.6009,428.125,69.7917" style="stroke:#181818;stroke-width:0.5208333333333334;"/><line style="stroke:#181818;stroke-width:0.5208333333333334;" x1="570.8333" x2="581.25" y1="69.7917" y2="59.375"/><line style="stroke:#181818;stroke-width:0.5208333333333334;" x1="428.125" x2="570.8333" y1="69.7917" y2="69.7917"/><line style="stroke:#181818;stroke-width:0.5208333333333334;" x1="570.8333" x2="570.8333" y1="69.7917" y2="107.6009"/><text fill="#000000" font-family="Arial" font-size="14.5833" lengthAdjust="spacing" textLength="111.4583" x="443.75" y="93.7449">TransformNode</text></g><!--MD5=[7804bcc982c3c9394d6fa662aadb1259]
link input_tag to TransformNode--><g id="link_input_tag_TransformNode"><path d="M156.2813,27.5937 C220.1979,34.75 314.9167,46.3542 396.875,60.4167 C405.2292,61.8542 413.9271,63.4792 422.5833,65.1979 " fill="none" id="input_tag-to-TransformNode" style="stroke:#454645;stroke-width:1.0416666666666667;"/><polygon fill="#454645" points="427.9688,66.2813,419.5996,60.3475,422.8627,65.2541,417.9561,68.5172,427.9688,66.2813" style="stroke:#454645;stroke-width:1.0416666666666667;"/><text fill="#000000" font-family="Arial" font-size="13.5417" lengthAdjust="spacing" textLength="207.2917" x="188.5417" y="28.1947">geometry_msgs/PointStamped</text></g><!--MD5=[9ff3e0a86d6a880a17975631cb8edbdb]
link tf_topic to TransformNode--><g id="link_tf_topic_TransformNode"><path d="M104.9479,83.3333 C163.8854,83.3333 324.2813,83.3333 422.7396,83.3333 " fill="none" id="tf_topic-to-TransformNode" style="stroke:#454645;stroke-width:1.0416666666666667;"/><polygon fill="#454645" points="427.9688,83.3333,418.5938,79.1667,422.7604,83.3333,418.5938,87.5,427.9688,83.3333" style="stroke:#454645;stroke-width:1.0416666666666667;"/><text fill="#000000" font-family="Arial" font-size="13.5417" lengthAdjust="spacing" textLength="139.5833" x="222.3958" y="79.2363">tf2_msgs/TFMessage</text></g><!--MD5=[9cf35f8411c63264ae8749cb66cecb3c]
link tf_static_topic to TransformNode--><g id="link_tf_static_topic_TransformNode"><path d="M119.3125,143.9167 C178.3438,138.875 297.2917,127.3854 396.875,109.375 C405.2708,107.8542 413.9896,106.0729 422.6667,104.1667 " fill="none" id="tf_static_topic-to-TransformNode" style="stroke:#454645;stroke-width:1.0416666666666667;"/><polygon fill="#454645" points="428.0625,102.9583,418.0069,100.9246,422.9782,104.0882,419.8146,109.0595,428.0625,102.9583" style="stroke:#454645;stroke-width:1.0416666666666667;"/><text fill="#000000" font-family="Arial" font-size="13.5417" lengthAdjust="spacing" textLength="139.5833" x="222.3958" y="105.278">tf2_msgs/TFMessage</text></g><!--MD5=[7597cb5e8a985a1029ca2d077bba6a7e]
link TransformNode to output_odom_ips--><g id="link_TransformNode_output_odom_ips"><path d="M581.6146,83.3333 C639.1667,83.3333 718.4167,83.3333 778.9167,83.3333 " fill="none" id="TransformNode-to-output_odom_ips" style="stroke:#454645;stroke-width:1.0416666666666667;"/><polygon fill="#454645" points="784.3438,83.3333,774.9688,79.1667,779.1354,83.3333,774.9688,87.5,784.3438,83.3333" style="stroke:#454645;stroke-width:1.0416666666666667;"/><text fill="#000000" font-family="Arial" font-size="13.5417" lengthAdjust="spacing" textLength="138.5417" x="613.5417" y="79.2363">nav_msgs/Odometry</text></g><!--MD5=[82dc7fa237ee76a32035b375969a629d]
@startuml DWM1001Transform
!theme vibrant
skinparam dpi 100
skinparam DefaultFontName Arial
left to right direction

queue "input/tag_position" as input_tag 
queue "  tf  " as tf_topic
queue "tf_static" as tf_static_topic
queue "output/odometry/ips" as output_odom_ips
node TransformNode 
input_tag - -> TransformNode : "geometry_msgs/PointStamped"
tf_topic - -> TransformNode : "tf2_msgs/TFMessage"
tf_static_topic - -> TransformNode : "tf2_msgs/TFMessage"
TransformNode - -> output_odom_ips : "nav_msgs/Odometry"
 
@enduml

@startuml DWM1001Transform
skinparam BackgroundColor FFFFFF
skinparam shadowing false
skinparam RoundCorner 7
skinparam ArrowColor 454645
skinparam FontColor 454645
skinparam SequenceLifeLineBorderColor 696969
skinparam SequenceGroupHeaderFontColor 454645
skinparam SequenceGroupFontColor 696969
skinparam SequenceGroupBorderColor 696969
skinparam SequenceGroupBorderThickness 1

skinparam sequenceDivider {
    BorderColor 454645
    BorderThickness 1
    FontColor 454645
}

skinparam participant {
    BackgroundColor FF6347
    BorderColor 454645
    FontColor FFFFFF
    BorderThickness 1.5
}

skinparam database {
    BackgroundColor 00FFFF
    BorderColor 454645
    FontColor 454645
}

skinparam entity {
    BackgroundColor FFE552
    BorderColor 454645
    FontColor 454645
}

skinparam note {
    BackgroundColor 7FFFD4
    BorderColor 454645
    FontColor 454645
    BorderThickness 1.5
}

skinparam actor {
    BackgroundColor 454645
    BorderColor 454645
    FontColor 454645
}

skinparam boundary {
    BackgroundColor FFE552
    BorderColor 454645
    FontColor 454645
}

skinparam control {
    BackgroundColor FFE552
    BorderColor 454645
    FontColor 454645
}

skinparam collections {
    BackgroundColor FF5F42
    BorderColor 454645
    FontColor 454645
}

skinparam queue {
    BackgroundColor FF6347
    BorderColor 454645
    FontColor FFF
    BorderThickness 1.5
}
skinparam dpi 100
skinparam DefaultFontName Arial
left to right direction

queue "input/tag_position" as input_tag 
queue "  tf  " as tf_topic
queue "tf_static" as tf_static_topic
queue "output/odometry/ips" as output_odom_ips
node TransformNode 
input_tag - -> TransformNode : "geometry_msgs/PointStamped"
tf_topic - -> TransformNode : "tf2_msgs/TFMessage"
tf_static_topic - -> TransformNode : "tf2_msgs/TFMessage"
TransformNode - -> output_odom_ips : "nav_msgs/Odometry"
 
@enduml

PlantUML version 1.2022.7(Mon Aug 22 13:01:30 EDT 2022)
(GPL source distribution)
Java Runtime: OpenJDK Runtime Environment
JVM: OpenJDK 64-Bit Server VM
Default Encoding: UTF-8
Language: en
Country: US
--></g></svg>